<?xml version="1.0" encoding="iso-8859-1"?>
<!-- Generator: Adobe Illustrator 18.0.0, SVG Export Plug-In . SVG Version: 6.00 Build 0)  -->
<!DOCTYPE svg PUBLIC "-//W3C//DTD SVG 1.1//EN" "http://www.w3.org/Graphics/SVG/1.1/DTD/svg11.dtd">
<svg version="1.1" id="Capa_1" xmlns="http://www.w3.org/2000/svg" xmlns:xlink="http://www.w3.org/1999/xlink" x="0px" y="0px"
	 viewBox="0 0 38 58.015" style="enable-background:new 0 0 38 58.015;" xml:space="preserve">
<g id="Shape_8">
	<g>
		<path style="fill-rule:evenodd;clip-rule:evenodd;" d="M20.02,0.936L19.246,0l-0.773,0.936
			c-5.349,6.475-8.416,16.013-8.416,26.169c0,5.034,0.734,9.878,2.182,14.4c0.865,2.698,3.059,4.563,5.762,5.004v3.567h2v-3.522
			c2.925-0.286,5.338-2.191,6.254-5.05c1.448-4.521,2.182-9.366,2.182-14.4C28.436,16.949,25.368,7.411,20.02,0.936z M19.246,3.176
			c1.594,2.12,2.943,4.553,4.033,7.205h-8.065C16.303,7.729,17.652,5.296,19.246,3.176z M24.348,40.904
			c-0.765,2.389-2.631,3.438-4.348,3.671V39.16h-2v5.317c-1.569-0.355-3.163-1.41-3.856-3.573c-1.386-4.327-2.088-8.97-2.088-13.799
			c0-5.214,0.84-10.247,2.4-14.739H24v-0.098c1.583,4.517,2.436,9.585,2.436,14.837C26.436,31.934,25.733,36.577,24.348,40.904z
			 M21,53.053h2v-4.962h-2V53.053z M15,53.053h2v-4.962h-2V53.053z M18,58.015h2v-4.962h-2V58.015z M19.088,19.217
			c-2.322,0-4.211,1.874-4.211,4.178c0,2.304,1.889,4.179,4.211,4.179c2.322,0,4.211-1.875,4.211-4.179
			C23.299,21.091,21.41,19.217,19.088,19.217z M19.088,25.59c-1.219,0-2.211-0.984-2.211-2.194c0-1.21,0.992-2.194,2.211-2.194
			c1.219,0,2.211,0.984,2.211,2.194C21.299,24.605,20.307,25.59,19.088,25.59z M29.541,31.3l-0.132,1.711
			c-0.229,2.967-0.84,6.224-1.719,9.169l-0.297,0.996L38,45.779V37.03L29.541,31.3z M36,43.243l-6.107-1.498
			c0.612-2.242,1.074-4.616,1.344-6.893L36,38.079V43.243z M8.416,33.012l-0.134-1.737L0,37.039v8.743l10.519-2.608l-0.296-0.994
			C9.546,39.915,8.684,36.485,8.416,33.012z M2,43.24v-5.169l4.597-3.199c0.324,2.557,0.894,4.987,1.421,6.877L2,43.24z"/>
	</g>
</g>
<g>
</g>
<g>
</g>
<g>
</g>
<g>
</g>
<g>
</g>
<g>
</g>
<g>
</g>
<g>
</g>
<g>
</g>
<g>
</g>
<g>
</g>
<g>
</g>
<g>
</g>
<g>
</g>
<g>
</g>
</svg>
